<?xml version="1.0" standalone="no"?>
<!DOCTYPE svg PUBLIC "-//W3C//DTD SVG 20010904//EN"
 "http://www.w3.org/TR/2001/REC-SVG-20010904/DTD/svg10.dtd">
<svg version="1.0" xmlns="http://www.w3.org/2000/svg"
 width="57px" height="57px" viewBox="0 0 900.000000 1280.000000"
 preserveAspectRatio="xMidYMid meet">
<g transform="translate(0.000000,1280.000000) scale(0.100000,-0.100000)"
fill="#000000" stroke="none">
<path d="M4200 12779 c-535 -51 -960 -169 -1404 -391 -795 -396 -1439 -1080
-1789 -1899 -99 -232 -175 -477 -227 -728 -76 -375 -80 -451 -80 -1701 0 -824
-3 -1079 -12 -1088 -9 -9 -97 -12 -333 -12 -299 0 -323 -1 -338 -18 -16 -17
-17 -272 -17 -3459 l0 -3440 23 -21 23 -22 4455 0 4456 0 21 23 22 23 0 3441
c0 3320 -1 3440 -18 3456 -16 15 -55 17 -334 17 -174 0 -323 3 -332 6 -14 6
-16 111 -16 1088 0 1170 -4 1269 -55 1574 -109 641 -375 1234 -782 1746 -126
157 -424 455 -583 582 -510 406 -1093 668 -1731 778 -171 30 -553 66 -671 65
-46 -1 -171 -10 -278 -20z m530 -1039 c349 -30 671 -120 985 -275 196 -96 270
-142 450 -276 570 -425 948 -1061 1067 -1795 22 -137 22 -154 25 -1278 3 -924
1 -1141 -9 -1147 -17 -11 -5479 -11 -5496 0 -10 6 -12 223 -9 1147 3 1124 3
1141 25 1278 114 704 467 1319 1006 1750 300 241 691 433 1068 526 286 70 600
95 888 70z"/>
</g>
</svg>